<?xml version="1.0" encoding="UTF-8"?>
<svg width="24" height="24" viewBox="0 0 24 24" fill="none" xmlns="http://www.w3.org/2000/svg">
    <path d="M12 2C8.13 2 5 5.13 5 9C5 11.38 6.19 13.47 8 14.74V17C8 17.55 8.45 18 9 18H15C15.55 18 16 17.55 16 17V14.74C17.81 13.47 19 11.38 19 9C19 5.13 15.87 2 12 2ZM14 13.58V16H10V13.58C8.2 12.63 7 10.95 7 9C7 6.24 9.24 4 12 4C14.76 4 17 6.24 17 9C17 10.95 15.8 12.63 14 13.58Z" fill="#10BEF2"/>
    <path d="M9 20H15V21C15 21.55 14.55 22 14 22H10C9.45 22 9 21.55 9 21V20Z" fill="#10BEF2"/>
</svg> 