<?xml version="1.0" encoding="UTF-8"?>
<svg width="24" height="24" viewBox="0 0 24 24" fill="none" xmlns="http://www.w3.org/2000/svg">
    <path d="M21.71 8.71C22.1 8.32 22.1 7.69 21.71 7.3L16.7 2.29C16.31 1.9 15.68 1.9 15.29 2.29L13 4.58L11.71 3.29C11.32 2.9 10.69 2.9 10.3 3.29L3.29 10.3C2.9 10.69 2.9 11.32 3.29 11.71L4.58 13L2.29 15.29C1.9 15.68 1.9 16.31 2.29 16.7L7.3 21.71C7.69 22.1 8.32 22.1 8.71 21.71L11 19.42L12.29 20.71C12.68 21.1 13.31 21.1 13.7 20.71L20.71 13.7C21.1 13.31 21.1 12.68 20.71 12.29L19.42 11L21.71 8.71ZM5.83 13L4.71 11.88L11 5.59L12.12 6.71L5.83 13ZM10.29 18.17L11.41 19.29L5.12 13L6.24 11.88L12.53 18.17L11.41 19.29L10.29 18.17ZM14.29 16.17L13.17 15.05L19.46 8.76L18.34 7.64L12.05 13.93L10.93 12.81L17.22 6.52L18.34 7.64L14.29 11.69L15.41 12.81L19.46 8.76L20.58 9.88L14.29 16.17Z" fill="#10BEF2"/>
</svg> 