<?xml version="1.0" encoding="UTF-8"?>
<svg width="24" height="24" viewBox="0 0 24 24" fill="none" xmlns="http://www.w3.org/2000/svg">
    <path d="M12 15C13.6569 15 15 13.6569 15 12C15 10.3431 13.6569 9 12 9C10.3431 9 9 10.3431 9 12C9 13.6569 10.3431 15 12 15Z" fill="#10BEF2"/>
    <path d="M19.4 15C19.7 14.1 19.8 13.1 19.8 12C19.8 10.9 19.7 9.9 19.4 9L21.5 7.3C21.7 7.1 21.7 6.9 21.6 6.7L19.6 3.3C19.5 3.1 19.3 3 19.1 3.1L16.5 4.1C15.9 3.6 15.2 3.2 14.3 2.9L13.9 0.2C13.9 0 13.7 0 13.5 0H9.5C9.3 0 9.1 0.1 9.1 0.2L8.7 2.9C7.8 3.2 7.1 3.6 6.5 4.1L3.9 3.1C3.7 3 3.5 3.1 3.4 3.3L1.4 6.7C1.3 6.9 1.3 7.1 1.5 7.3L3.6 9C3.3 9.9 3.2 10.9 3.2 12C3.2 13.1 3.3 14.1 3.6 15L1.5 16.7C1.3 16.9 1.3 17.1 1.4 17.3L3.4 20.7C3.5 20.9 3.7 21 3.9 20.9L6.5 19.9C7.1 20.4 7.8 20.8 8.7 21.1L9.1 23.8C9.1 24 9.3 24 9.5 24H13.5C13.7 24 13.9 23.9 13.9 23.8L14.3 21.1C15.2 20.8 15.9 20.4 16.5 19.9L19.1 20.9C19.3 21 19.5 20.9 19.6 20.7L21.6 17.3C21.7 17.1 21.7 16.9 21.5 16.7L19.4 15ZM12 16C9.8 16 8 14.2 8 12C8 9.8 9.8 8 12 8C14.2 8 16 9.8 16 12C16 14.2 14.2 16 12 16Z" fill="#10BEF2"/>
</svg> 